# xmcd CD database file
# Copyright (C) 1997 Ti Kan
#
# Track frame offsets:
#  150
#  24327
#  35615
#  59035
#  75790
#  88727
#  108200
#  139820
#  171767
#  192257
#  219432
#  240217
#
# Disc length: 3624 seconds
#
# Revision: 1
# Processed by: cddbd v1.4b41PL1 Copyright (c) Steve Scherf et al.
# Submitted via: CDWizzard Release:4.32
#
DISCID=930e260c
DTITLE=John Scofield - Liquid Fire - The Best of John Scofield
DYEAR=1900
DGENRE=
TTITLE0=Just My Luck
TTITLE1=King For A Day
TTITLE2=High And Mighty
TTITLE3=Protocol
TTITLE4=Make Me
TTITLE5=The Nag
TTITLE6=Georgia On My Mind
TTITLE7=Blue Matter
TTITLE8=Wabash
TTITLE9=Loud Jazz
TTITLE10=Science And Religion
TTITLE11=The Boss's Car
EXTD=GramaVision 79501
EXTT0=
EXTT1=
EXTT2=
EXTT3=
EXTT4=
EXTT5=
EXTT6=
EXTT7=
EXTT8=
EXTT9=
EXTT10=
EXTT11=
PLAYORDER=
